<?xml version="1.0" encoding="UTF-8"?>
<svg version="1.1" xmlns="http://www.w3.org/2000/svg" width="32" height="32">
<path d="M0 0 C3.45826342 -0.05789006 6.91640293 -0.09355821 10.375 -0.125 C11.35984375 -0.14175781 12.3446875 -0.15851562 13.359375 -0.17578125 C14.77089844 -0.18544922 14.77089844 -0.18544922 16.2109375 -0.1953125 C17.51490479 -0.21102295 17.51490479 -0.21102295 18.84521484 -0.22705078 C21 0 21 0 23 2 C24.98821313 2.39764263 26.98944339 2.73775349 29 3 C29.02465881 6.96930989 29.04284023 10.93859034 29.05493164 14.90795898 C29.05997057 16.25920386 29.06680177 17.61044326 29.07543945 18.96166992 C29.08752419 20.90020434 29.09269828 22.838778 29.09765625 24.77734375 C29.10289307 25.94515381 29.10812988 27.11296387 29.11352539 28.31616211 C29 31 29 31 28 32 C25.79349344 32.10012401 23.58377614 32.1308118 21.375 32.1328125 C20.71290527 32.13376923 20.05081055 32.13472595 19.36865234 32.13571167 C17.96647039 32.13639326 16.5642853 32.13454042 15.16210938 32.13037109 C13.00904287 32.12502246 10.85618498 32.1303167 8.703125 32.13671875 C7.34374954 32.13605796 5.9843742 32.13477679 4.625 32.1328125 C3.37976563 32.13168457 2.13453125 32.13055664 0.8515625 32.12939453 C-2 32 -2 32 -3 31 C-3.08685603 29.43827255 -3.10702219 27.87270656 -3.09765625 26.30859375 C-3.09443359 25.36435547 -3.09121094 24.42011719 -3.08789062 23.44726562 C-3.07951172 22.45404297 -3.07113281 21.46082031 -3.0625 20.4375 C-3.05798828 19.44041016 -3.05347656 18.44332031 -3.04882812 17.41601562 C-3.03700007 14.94395151 -3.02051849 12.47200482 -3 10 C-2.01 9.67 -1.02 9.34 0 9 C0 6.03 0 3.06 0 0 Z " fill="#6B563C" transform="translate(3,0)"/>
<path d="M0 0 C4.95 1.98 4.95 1.98 10 4 C10 3.34 10 2.68 10 2 C14.75 1.875 14.75 1.875 17 3 C19.00800456 2.71887936 21.01014051 2.38932033 23 2 C23.06058594 2.84304687 23.12117188 3.68609375 23.18359375 4.5546875 C23.30927734 6.19824219 23.30927734 6.19824219 23.4375 7.875 C23.51871094 8.96554688 23.59992187 10.05609375 23.68359375 11.1796875 C23.83001703 13.94728971 23.83001703 13.94728971 25 16 C21.02084841 16.02886984 17.04172347 16.04675406 13.0625 16.0625 C11.35803711 16.07506836 11.35803711 16.07506836 9.61914062 16.08789062 C8.53955078 16.09111328 7.45996094 16.09433594 6.34765625 16.09765625 C4.84730835 16.10551147 4.84730835 16.10551147 3.31665039 16.11352539 C1 16 1 16 0 15 C-0.07313567 12.46950598 -0.09247527 9.96695163 -0.0625 7.4375 C-0.05798828 6.72658203 -0.05347656 6.01566406 -0.04882812 5.28320312 C-0.03700864 3.52209987 -0.01907263 1.76103964 0 0 Z " fill="#957754" transform="translate(0,16)"/>
<path d="M0 0 C3.39775221 -0.1622269 6.78775204 -0.28099775 10.1875 -0.375 C11.14720703 -0.42527344 12.10691406 -0.47554688 13.09570312 -0.52734375 C17.8723844 -0.6265136 20.23471304 -0.5682824 24.15625 2.34375 C27.06926254 6.76128549 26.53656394 11.78702498 26.3125 16.875 C26.28994141 17.84953125 26.26738281 18.8240625 26.24414062 19.828125 C26.18550753 22.22035515 26.10351153 24.6093615 26 27 C24.68 27 23.36 27 22 27 C21.67 21.39 21.34 15.78 21 10 C14.07 9.67 7.14 9.34 0 9 C0 6.03 0 3.06 0 0 Z " fill="#E9E1D8" transform="translate(3,0)"/>
<path d="M0 0 C6 6 6 6 6.11352539 8.04125977 C6.10828857 8.91580811 6.10305176 9.79035645 6.09765625 10.69140625 C6.09443359 11.63564453 6.09121094 12.57988281 6.08789062 13.55273438 C6.07951172 14.54595703 6.07113281 15.53917969 6.0625 16.5625 C6.05798828 17.55958984 6.05347656 18.55667969 6.04882812 19.58398438 C6.03700007 22.05604849 6.02051849 24.52799518 6 27 C5.34 27 4.68 27 4 27 C4 20.07 4 13.14 4 6 C2.68 5.67 1.36 5.34 0 5 C0 3.35 0 1.7 0 0 Z " fill="#CEC0B2" transform="translate(23,0)"/>
<path d="M0 0 C0.66 0 1.32 0 2 0 C2 9.24 2 18.48 2 28 C0.68 28.33 -0.64 28.66 -2 29 C-1.67 28.34 -1.34 27.68 -1 27 C-0.84588894 24.9692523 -0.75017547 22.93393579 -0.68359375 20.8984375 C-0.64169922 19.68671875 -0.59980469 18.475 -0.55664062 17.2265625 C-0.51732422 15.95554687 -0.47800781 14.68453125 -0.4375 13.375 C-0.39431641 12.09625 -0.35113281 10.8175 -0.30664062 9.5 C-0.20030114 6.33344652 -0.09827167 3.16681247 0 0 Z " fill="#5F4C37" transform="translate(30,3)"/>
<path d="M0 0 C1.32 0 2.64 0 4 0 C4 3.3 4 6.6 4 10 C4.99 10.33 5.98 10.66 7 11 C6.01 11.495 6.01 11.495 5 12 C5.33 12.99 5.66 13.98 6 15 C4.68 14.34 3.36 13.68 2 13 C2 9.04 2 5.08 2 1 C1.34 0.67 0.68 0.34 0 0 Z " fill="#80684B" transform="translate(21,17)"/>
<path d="M0 0 C1.67542976 0.28604898 3.34385343 0.61781233 5 1 C5.33 2.32 5.66 3.64 6 5 C3.03 5 0.06 5 -3 5 C-1 1 -1 1 0 0 Z " fill="#F9C27A" transform="translate(11,4)"/>
<path d="M0 0 C1.65 0 3.3 0 5 0 C5 1.98 5 3.96 5 6 C3.35 6 1.7 6 0 6 C0 4.02 0 2.04 0 0 Z " fill="#F7AC49" transform="translate(10,18)"/>
<path d="M0 0 C1.65 1.65 3.3 3.3 5 5 C3.0625 5.5625 3.0625 5.5625 1 6 C0 5 0 5 -0.0625 2.4375 C-0.041875 1.633125 -0.02125 0.82875 0 0 Z " fill="#B8A186" transform="translate(23,0)"/>
</svg>
